<svg width="32" height="32" viewBox="0 0 32 32" fill="none" xmlns="http://www.w3.org/2000/svg">
<rect width="32" height="32" rx="8" fill="#FF971D"/>
<g clip-path="url(#clip0_181_13)">
<path d="M24.25 7.75V25.625H9.8125C8.67263 25.625 7.75 24.701 7.75 23.5625C7.75 22.424 8.67263 21.5 9.8125 21.5H22.875V5H9.125C7.6125 5 6.375 6.2375 6.375 7.75V24.25C6.375 25.7625 7.6125 27 9.125 27H25.625V7.75H24.25Z" fill="white"/>
<path d="M9.81387 22.875C9.43437 22.875 9.125 23.183 9.125 23.5625C9.125 23.942 9.433 24.25 9.8125 24.25H22.8736V22.875H9.81387Z" fill="white"/>
</g>
<defs>
<clipPath id="clip0_181_13">
<rect width="22" height="22" fill="white" transform="translate(5 5)"/>
</clipPath>
</defs>
</svg>
